<svg id="Camada_1" data-name="Camada 1" xmlns="http://www.w3.org/2000/svg" viewBox="0 0 1366.03 262.18"><defs><style>.cls-1{fill:#403d00;}.cls-2{fill:#c3ce22;}.cls-3{fill:#4f4e03;}.cls-4{fill:#b2bb1e;}</style></defs><title>backgroudSTs</title><g id="backgroudSTs"><g id="backgroudST2"><path id="Caminho_2283" data-name="Caminho 2283" class="cls-1" d="M0,765.72,986.53,967.94,1366,965.72v22H0Z" transform="translate(0 -726)"/></g><g id="backgroudST1"><g id="Grupo_1524" data-name="Grupo 1524"><path id="Caminho_2245" data-name="Caminho 2245" class="cls-2" d="M0,986.86,1366,726l0,262.17H0Z" transform="translate(0 -726)"/></g></g></g><circle class="cls-3" cx="5.52" cy="173.19" r="1.62"/><circle class="cls-3" cx="30.24" cy="173.19" r="1.62"/><circle class="cls-3" cx="54.96" cy="173.19" r="1.62"/><circle class="cls-3" cx="79.44" cy="173.19" r="1.62"/><circle class="cls-3" cx="5.52" cy="196.19" r="1.62"/><circle class="cls-3" cx="30.24" cy="196.19" r="1.62"/><circle class="cls-3" cx="54.96" cy="196.19" r="1.62"/><circle class="cls-3" cx="79.44" cy="196.19" r="1.62"/><circle class="cls-3" cx="5.52" cy="218.19" r="1.62"/><circle class="cls-3" cx="30.24" cy="218.19" r="1.62"/><circle class="cls-3" cx="54.96" cy="218.19" r="1.62"/><circle class="cls-3" cx="79.44" cy="218.19" r="1.62"/><circle class="cls-3" cx="5.52" cy="241.19" r="1.62"/><circle class="cls-3" cx="30.24" cy="241.19" r="1.62"/><circle class="cls-3" cx="54.96" cy="241.19" r="1.62"/><circle class="cls-3" cx="79.44" cy="241.19" r="1.62"/><circle class="cls-3" cx="104.52" cy="173.19" r="1.62"/><circle class="cls-3" cx="129.24" cy="173.19" r="1.62"/><circle class="cls-3" cx="153.96" cy="173.19" r="1.62"/><circle class="cls-3" cx="178.44" cy="173.19" r="1.62"/><circle class="cls-3" cx="104.52" cy="196.19" r="1.62"/><circle class="cls-3" cx="129.24" cy="196.19" r="1.62"/><circle class="cls-3" cx="153.96" cy="196.19" r="1.62"/><circle class="cls-3" cx="178.44" cy="196.19" r="1.62"/><circle class="cls-3" cx="104.52" cy="218.19" r="1.62"/><circle class="cls-3" cx="129.24" cy="218.19" r="1.62"/><circle class="cls-3" cx="153.96" cy="218.19" r="1.62"/><circle class="cls-3" cx="178.44" cy="218.19" r="1.62"/><path class="cls-4" d="M106.14,967.19a1.62,1.62,0,1,1-3.24,0l1.62-.29c.54-.09,1.28-.24,1.28-.24C106,966.68,106.14,966.82,106.14,967.19Z" transform="translate(0 -726)"/><circle class="cls-4" cx="129.24" cy="241.19" r="1.62"/><circle class="cls-4" cx="153.96" cy="241.19" r="1.62"/><circle class="cls-4" cx="178.44" cy="241.19" r="1.62"/><circle class="cls-3" cx="203.52" cy="173.19" r="1.62"/><circle class="cls-3" cx="228.24" cy="173.19" r="1.62"/><circle class="cls-3" cx="252.96" cy="173.19" r="1.62"/><circle class="cls-3" cx="277.44" cy="173.19" r="1.62"/><circle class="cls-3" cx="203.52" cy="196.19" r="1.62"/><circle class="cls-3" cx="228.24" cy="196.19" r="1.62"/><circle class="cls-3" cx="252.96" cy="196.19" r="1.62"/><circle class="cls-3" cx="277.44" cy="196.19" r="1.62"/><circle class="cls-3" cx="203.52" cy="218.19" r="1.62"/><path class="cls-4" d="M229.86,944.19a1.62,1.62,0,1,1-3.24,0c0-.7.39-.68,1.43-.87C229.3,943.08,229.86,943.29,229.86,944.19Z" transform="translate(0 -726)"/><circle class="cls-4" cx="252.96" cy="218.19" r="1.62"/><circle class="cls-4" cx="277.44" cy="218.19" r="1.62"/><circle class="cls-4" cx="203.52" cy="241.19" r="1.62"/><circle class="cls-4" cx="228.24" cy="241.19" r="1.62"/><circle class="cls-4" cx="252.96" cy="241.19" r="1.62"/><circle class="cls-4" cx="277.44" cy="241.19" r="1.62"/><circle class="cls-3" cx="302.52" cy="173.19" r="1.62"/><circle class="cls-3" cx="327.24" cy="173.19" r="1.62"/><circle class="cls-3" cx="351.96" cy="173.19" r="1.62"/><circle class="cls-3" cx="376.44" cy="173.19" r="1.62"/><circle class="cls-3" cx="302.52" cy="196.19" r="1.62"/><circle class="cls-3" cx="327.24" cy="196.19" r="1.62"/><circle class="cls-4" cx="351.96" cy="196.19" r="1.62"/><circle class="cls-4" cx="376.44" cy="196.19" r="1.62"/><circle class="cls-4" cx="302.52" cy="218.19" r="1.62"/><circle class="cls-4" cx="327.24" cy="218.19" r="1.62"/><circle class="cls-4" cx="351.96" cy="218.19" r="1.62"/><circle class="cls-4" cx="376.44" cy="218.19" r="1.62"/><circle class="cls-4" cx="302.52" cy="241.19" r="1.62"/><circle class="cls-4" cx="327.24" cy="241.19" r="1.62"/><circle class="cls-4" cx="351.96" cy="241.19" r="1.62"/><circle class="cls-4" cx="376.44" cy="241.19" r="1.62"/><circle class="cls-3" cx="401.52" cy="173.19" r="1.62"/><circle class="cls-3" cx="426.24" cy="173.19" r="1.62"/><circle class="cls-3" cx="450.96" cy="173.19" r="1.62"/><circle class="cls-4" cx="475.44" cy="173.19" r="1.62"/><circle class="cls-4" cx="401.52" cy="196.19" r="1.62"/><circle class="cls-4" cx="426.24" cy="196.19" r="1.62"/><circle class="cls-4" cx="450.96" cy="196.19" r="1.62"/><circle class="cls-4" cx="475.44" cy="196.19" r="1.62"/><circle class="cls-4" cx="401.52" cy="218.19" r="1.62"/><circle class="cls-4" cx="426.24" cy="218.19" r="1.62"/><circle class="cls-4" cx="450.96" cy="218.19" r="1.62"/><circle class="cls-4" cx="475.44" cy="218.19" r="1.62"/><circle class="cls-4" cx="401.52" cy="241.19" r="1.62"/><circle class="cls-4" cx="426.24" cy="241.19" r="1.62"/><circle class="cls-4" cx="450.96" cy="241.19" r="1.62"/><circle class="cls-4" cx="475.44" cy="241.19" r="1.62"/><circle class="cls-4" cx="500.52" cy="173.19" r="1.62"/><circle class="cls-4" cx="525.24" cy="173.19" r="1.62"/><circle class="cls-4" cx="549.96" cy="173.19" r="1.62"/><circle class="cls-4" cx="574.44" cy="173.19" r="1.62"/><circle class="cls-4" cx="500.52" cy="196.19" r="1.62"/><circle class="cls-4" cx="525.24" cy="196.19" r="1.62"/><circle class="cls-4" cx="549.96" cy="196.19" r="1.62"/><circle class="cls-4" cx="574.44" cy="196.19" r="1.62"/><circle class="cls-4" cx="500.52" cy="218.19" r="1.62"/><circle class="cls-4" cx="525.24" cy="218.19" r="1.62"/><circle class="cls-4" cx="549.96" cy="218.19" r="1.62"/><circle class="cls-4" cx="574.44" cy="218.19" r="1.62"/><circle class="cls-4" cx="500.52" cy="241.19" r="1.62"/><circle class="cls-4" cx="525.24" cy="241.19" r="1.62"/><circle class="cls-4" cx="549.96" cy="241.19" r="1.62"/><circle class="cls-4" cx="574.44" cy="241.19" r="1.62"/><circle class="cls-4" cx="599.52" cy="173.19" r="1.62"/><circle class="cls-4" cx="624.24" cy="173.19" r="1.62"/><circle class="cls-4" cx="648.96" cy="173.19" r="1.62"/><circle class="cls-4" cx="673.44" cy="173.19" r="1.62"/><circle class="cls-4" cx="599.52" cy="196.19" r="1.62"/><circle class="cls-4" cx="624.24" cy="196.19" r="1.62"/><circle class="cls-4" cx="648.96" cy="196.19" r="1.62"/><circle class="cls-4" cx="673.44" cy="196.19" r="1.62"/><circle class="cls-4" cx="599.52" cy="218.19" r="1.62"/><circle class="cls-4" cx="624.24" cy="218.19" r="1.62"/><circle class="cls-4" cx="648.96" cy="218.19" r="1.62"/><circle class="cls-4" cx="673.44" cy="218.19" r="1.62"/><circle class="cls-4" cx="599.52" cy="241.19" r="1.62"/><circle class="cls-4" cx="624.24" cy="241.19" r="1.62"/><circle class="cls-4" cx="648.96" cy="241.19" r="1.62"/><circle class="cls-4" cx="673.44" cy="241.19" r="1.62"/><circle class="cls-4" cx="698.52" cy="173.19" r="1.62"/><circle class="cls-4" cx="723.24" cy="173.19" r="1.62"/><circle class="cls-4" cx="747.96" cy="173.19" r="1.62"/><circle class="cls-4" cx="772.44" cy="173.19" r="1.62"/><circle class="cls-4" cx="698.52" cy="196.19" r="1.62"/><circle class="cls-4" cx="723.24" cy="196.19" r="1.62"/><circle class="cls-4" cx="747.96" cy="196.19" r="1.62"/><circle class="cls-4" cx="772.44" cy="196.19" r="1.62"/><circle class="cls-4" cx="698.52" cy="218.19" r="1.62"/><circle class="cls-4" cx="723.24" cy="218.19" r="1.62"/><circle class="cls-4" cx="747.96" cy="218.19" r="1.62"/><circle class="cls-4" cx="772.44" cy="218.19" r="1.62"/><circle class="cls-4" cx="698.52" cy="241.19" r="1.62"/><circle class="cls-4" cx="723.24" cy="241.19" r="1.62"/><circle class="cls-4" cx="747.96" cy="241.19" r="1.62"/><circle class="cls-4" cx="772.44" cy="241.19" r="1.62"/><circle class="cls-4" cx="799.52" cy="173.19" r="1.62"/><circle class="cls-4" cx="824.24" cy="173.19" r="1.62"/><circle class="cls-4" cx="848.96" cy="173.19" r="1.62"/><circle class="cls-4" cx="873.44" cy="173.19" r="1.62"/><circle class="cls-4" cx="799.52" cy="196.19" r="1.62"/><circle class="cls-4" cx="824.24" cy="196.19" r="1.62"/><circle class="cls-4" cx="848.96" cy="196.19" r="1.62"/><circle class="cls-4" cx="873.44" cy="196.19" r="1.62"/><circle class="cls-4" cx="799.52" cy="218.19" r="1.62"/><circle class="cls-4" cx="824.24" cy="218.19" r="1.62"/><circle class="cls-4" cx="848.96" cy="218.19" r="1.62"/><circle class="cls-4" cx="873.44" cy="218.19" r="1.62"/><circle class="cls-4" cx="799.52" cy="241.19" r="1.62"/><circle class="cls-4" cx="824.24" cy="241.19" r="1.62"/><circle class="cls-4" cx="848.96" cy="241.19" r="1.62"/><circle class="cls-4" cx="873.44" cy="241.19" r="1.62"/><circle class="cls-4" cx="898.52" cy="173.19" r="1.62"/><circle class="cls-4" cx="923.24" cy="173.19" r="1.62"/><circle class="cls-4" cx="947.96" cy="173.19" r="1.62"/><circle class="cls-4" cx="972.44" cy="173.19" r="1.62"/><circle class="cls-4" cx="898.52" cy="196.19" r="1.62"/><circle class="cls-4" cx="923.24" cy="196.19" r="1.62"/><circle class="cls-4" cx="947.96" cy="196.19" r="1.62"/><circle class="cls-4" cx="972.44" cy="196.19" r="1.62"/><circle class="cls-4" cx="898.52" cy="218.19" r="1.62"/><circle class="cls-4" cx="923.24" cy="218.19" r="1.62"/><circle class="cls-4" cx="947.96" cy="218.19" r="1.62"/><circle class="cls-4" cx="972.44" cy="218.19" r="1.62"/><circle class="cls-4" cx="898.52" cy="241.19" r="1.62"/><circle class="cls-4" cx="923.24" cy="241.19" r="1.62"/><circle class="cls-4" cx="947.96" cy="241.19" r="1.62"/><circle class="cls-4" cx="972.44" cy="241.19" r="1.62"/><circle class="cls-4" cx="997.52" cy="173.19" r="1.62"/><circle class="cls-4" cx="1022.24" cy="173.19" r="1.62"/><circle class="cls-4" cx="1046.96" cy="173.19" r="1.62"/><circle class="cls-4" cx="1071.44" cy="173.19" r="1.62"/><circle class="cls-4" cx="997.52" cy="196.19" r="1.62"/><circle class="cls-4" cx="1022.24" cy="196.19" r="1.62"/><circle class="cls-4" cx="1046.96" cy="196.19" r="1.62"/><circle class="cls-4" cx="1071.44" cy="196.19" r="1.62"/><circle class="cls-4" cx="997.52" cy="218.19" r="1.62"/><circle class="cls-4" cx="1022.24" cy="218.19" r="1.62"/><circle class="cls-4" cx="1046.96" cy="218.19" r="1.62"/><circle class="cls-4" cx="1071.44" cy="218.19" r="1.62"/><circle class="cls-4" cx="997.52" cy="241.19" r="1.62"/><circle class="cls-4" cx="1022.24" cy="241.19" r="1.62"/><circle class="cls-4" cx="1046.96" cy="241.19" r="1.62"/><circle class="cls-4" cx="1071.44" cy="241.19" r="1.62"/><circle class="cls-4" cx="1096.52" cy="173.19" r="1.62"/><circle class="cls-4" cx="1121.24" cy="173.19" r="1.62"/><circle class="cls-4" cx="1145.96" cy="173.19" r="1.62"/><circle class="cls-4" cx="1170.44" cy="173.19" r="1.62"/><circle class="cls-4" cx="1096.52" cy="196.19" r="1.62"/><circle class="cls-4" cx="1121.24" cy="196.19" r="1.62"/><circle class="cls-4" cx="1145.96" cy="196.19" r="1.62"/><circle class="cls-4" cx="1170.44" cy="196.19" r="1.62"/><circle class="cls-4" cx="1096.52" cy="218.19" r="1.62"/><circle class="cls-4" cx="1121.24" cy="218.19" r="1.62"/><circle class="cls-4" cx="1145.96" cy="218.19" r="1.62"/><circle class="cls-4" cx="1170.44" cy="218.19" r="1.62"/><circle class="cls-4" cx="1096.52" cy="241.19" r="1.62"/><circle class="cls-4" cx="1121.24" cy="241.19" r="1.62"/><circle class="cls-4" cx="1145.96" cy="241.19" r="1.62"/><circle class="cls-4" cx="1170.44" cy="241.19" r="1.62"/><circle class="cls-4" cx="1195.52" cy="173.19" r="1.62"/><circle class="cls-4" cx="1220.24" cy="173.19" r="1.62"/><circle class="cls-4" cx="1244.96" cy="173.19" r="1.62"/><circle class="cls-4" cx="1269.44" cy="173.19" r="1.62"/><circle class="cls-4" cx="1195.52" cy="196.19" r="1.62"/><circle class="cls-4" cx="1220.24" cy="196.19" r="1.62"/><circle class="cls-4" cx="1244.96" cy="196.19" r="1.62"/><circle class="cls-4" cx="1269.44" cy="196.19" r="1.62"/><circle class="cls-4" cx="1195.52" cy="218.19" r="1.62"/><circle class="cls-4" cx="1220.24" cy="218.19" r="1.62"/><circle class="cls-4" cx="1244.96" cy="218.19" r="1.62"/><circle class="cls-4" cx="1269.44" cy="218.19" r="1.62"/><circle class="cls-4" cx="1195.52" cy="241.19" r="1.62"/><circle class="cls-4" cx="1220.24" cy="241.19" r="1.62"/><circle class="cls-4" cx="1244.96" cy="241.19" r="1.62"/><circle class="cls-4" cx="1269.44" cy="241.19" r="1.62"/><circle class="cls-4" cx="1294.52" cy="173.19" r="1.62"/><circle class="cls-4" cx="1319.24" cy="173.19" r="1.62"/><circle class="cls-4" cx="1343.96" cy="173.19" r="1.62"/><circle class="cls-4" cx="1294.52" cy="196.19" r="1.62"/><circle class="cls-4" cx="1319.24" cy="196.19" r="1.62"/><circle class="cls-4" cx="1343.96" cy="196.19" r="1.62"/><circle class="cls-4" cx="1294.52" cy="218.19" r="1.62"/><circle class="cls-4" cx="1319.24" cy="218.19" r="1.62"/><circle class="cls-4" cx="1343.96" cy="218.19" r="1.62"/><circle class="cls-4" cx="1294.52" cy="241.19" r="1.62"/><circle class="cls-4" cx="1319.24" cy="241.19" r="1.62"/><circle class="cls-4" cx="1343.96" cy="241.19" r="1.62"/><circle class="cls-3" cx="5.52" cy="80.19" r="1.62"/><circle class="cls-3" cx="30.24" cy="80.19" r="1.62"/><circle class="cls-3" cx="54.96" cy="80.19" r="1.62"/><circle class="cls-3" cx="79.44" cy="80.19" r="1.62"/><circle class="cls-3" cx="5.52" cy="103.19" r="1.62"/><circle class="cls-3" cx="30.24" cy="103.19" r="1.62"/><circle class="cls-3" cx="54.96" cy="103.19" r="1.62"/><circle class="cls-3" cx="79.44" cy="103.19" r="1.62"/><circle class="cls-3" cx="5.52" cy="56.19" r="1.62"/><circle class="cls-3" cx="30.24" cy="56.19" r="1.62"/><circle class="cls-3" cx="54.96" cy="56.19" r="1.62"/><circle class="cls-3" cx="5.52" cy="125.19" r="1.62"/><circle class="cls-3" cx="30.24" cy="125.19" r="1.62"/><circle class="cls-3" cx="54.96" cy="125.19" r="1.62"/><circle class="cls-3" cx="79.44" cy="125.19" r="1.62"/><circle class="cls-3" cx="5.52" cy="148.19" r="1.62"/><circle class="cls-3" cx="30.24" cy="148.19" r="1.62"/><circle class="cls-3" cx="54.96" cy="148.19" r="1.62"/><circle class="cls-3" cx="79.44" cy="148.19" r="1.62"/><circle class="cls-3" cx="104.52" cy="80.19" r="1.62"/><circle class="cls-3" cx="129.24" cy="80.19" r="1.62"/><circle class="cls-3" cx="153.96" cy="80.19" r="1.62"/><circle class="cls-3" cx="178.44" cy="80.19" r="1.62"/><circle class="cls-3" cx="104.52" cy="103.19" r="1.62"/><circle class="cls-3" cx="129.24" cy="103.19" r="1.62"/><circle class="cls-3" cx="153.96" cy="103.19" r="1.62"/><circle class="cls-3" cx="178.44" cy="103.19" r="1.62"/><circle class="cls-3" cx="104.52" cy="125.19" r="1.62"/><circle class="cls-3" cx="129.24" cy="125.19" r="1.62"/><circle class="cls-3" cx="153.96" cy="125.19" r="1.62"/><circle class="cls-3" cx="178.44" cy="125.19" r="1.62"/><path class="cls-3" d="M106.14,874.19a1.62,1.62,0,0,1-3.24,0l1.62-.29c.54-.09,1.28-.24,1.28-.24C106,873.68,106.14,873.82,106.14,874.19Z" transform="translate(0 -726)"/><circle class="cls-3" cx="129.24" cy="148.19" r="1.62"/><circle class="cls-3" cx="153.96" cy="148.19" r="1.62"/><circle class="cls-3" cx="178.44" cy="148.19" r="1.62"/><circle class="cls-3" cx="203.52" cy="103.19" r="1.62"/><circle class="cls-3" cx="228.24" cy="103.19" r="1.62"/><circle class="cls-3" cx="252.96" cy="103.19" r="1.62"/><circle class="cls-3" cx="277.44" cy="103.19" r="1.62"/><circle class="cls-3" cx="203.52" cy="125.19" r="1.62"/><path class="cls-3" d="M229.86,851.19a1.62,1.62,0,1,1-3.24,0c0-.7.39-.68,1.43-.87C229.3,850.08,229.86,850.29,229.86,851.19Z" transform="translate(0 -726)"/><circle class="cls-3" cx="252.96" cy="125.19" r="1.62"/><circle class="cls-3" cx="277.44" cy="125.19" r="1.62"/><circle class="cls-3" cx="203.52" cy="148.19" r="1.62"/><circle class="cls-3" cx="228.24" cy="148.19" r="1.62"/><circle class="cls-3" cx="252.96" cy="148.19" r="1.62"/><circle class="cls-3" cx="277.44" cy="148.19" r="1.62"/><circle class="cls-3" cx="302.52" cy="103.19" r="1.62"/><circle class="cls-3" cx="302.52" cy="125.19" r="1.62"/><circle class="cls-3" cx="327.24" cy="125.19" r="1.62"/><circle class="cls-3" cx="351.96" cy="125.19" r="1.62"/><circle class="cls-3" cx="376.44" cy="125.19" r="1.62"/><circle class="cls-3" cx="302.52" cy="148.19" r="1.62"/><circle class="cls-3" cx="327.24" cy="148.19" r="1.62"/><circle class="cls-3" cx="351.96" cy="148.19" r="1.62"/><circle class="cls-3" cx="376.44" cy="148.19" r="1.62"/><circle class="cls-3" cx="401.52" cy="125.19" r="1.62"/><circle class="cls-3" cx="401.52" cy="148.19" r="1.62"/><circle class="cls-3" cx="426.24" cy="148.19" r="1.62"/><circle class="cls-3" cx="450.96" cy="148.19" r="1.62"/><circle class="cls-3" cx="475.44" cy="148.19" r="1.62"/><circle class="cls-3" cx="500.52" cy="148.19" r="1.62"/><path class="cls-3" d="M524,873.14a1.59,1.59,0,0,0-.39,1,1.62,1.62,0,1,0,3.16-.48Z" transform="translate(0 -726)"/><circle class="cls-4" cx="599.52" cy="148.19" r="1.62"/><circle class="cls-4" cx="624.24" cy="148.19" r="1.62"/><circle class="cls-4" cx="648.96" cy="148.19" r="1.62"/><circle class="cls-4" cx="673.44" cy="148.19" r="1.62"/><circle class="cls-4" cx="723.24" cy="125.19" r="1.62"/><circle class="cls-4" cx="747.96" cy="125.19" r="1.62"/><circle class="cls-4" cx="772.44" cy="125.19" r="1.62"/><circle class="cls-4" cx="698.52" cy="148.19" r="1.62"/><circle class="cls-4" cx="723.24" cy="148.19" r="1.62"/><circle class="cls-4" cx="747.96" cy="148.19" r="1.62"/><circle class="cls-4" cx="772.44" cy="148.19" r="1.62"/><circle class="cls-4" cx="848.96" cy="103.19" r="1.62"/><circle class="cls-4" cx="873.44" cy="103.19" r="1.62"/><circle class="cls-4" cx="799.52" cy="125.19" r="1.62"/><circle class="cls-4" cx="824.24" cy="125.19" r="1.62"/><circle class="cls-4" cx="848.96" cy="125.19" r="1.62"/><circle class="cls-4" cx="873.44" cy="125.19" r="1.62"/><circle class="cls-4" cx="799.52" cy="148.19" r="1.62"/><circle class="cls-4" cx="824.24" cy="148.19" r="1.62"/><circle class="cls-4" cx="848.96" cy="148.19" r="1.62"/><circle class="cls-4" cx="873.44" cy="148.19" r="1.62"/><circle class="cls-4" cx="972.44" cy="80.19" r="1.62"/><circle class="cls-4" cx="898.52" cy="103.19" r="1.62"/><circle class="cls-4" cx="923.24" cy="103.19" r="1.62"/><circle class="cls-4" cx="947.96" cy="103.19" r="1.62"/><circle class="cls-4" cx="972.44" cy="103.19" r="1.62"/><circle class="cls-4" cx="898.52" cy="125.19" r="1.62"/><circle class="cls-4" cx="923.24" cy="125.19" r="1.62"/><circle class="cls-4" cx="947.96" cy="125.19" r="1.62"/><circle class="cls-4" cx="972.44" cy="125.19" r="1.62"/><circle class="cls-4" cx="898.52" cy="148.19" r="1.62"/><circle class="cls-4" cx="923.24" cy="148.19" r="1.62"/><circle class="cls-4" cx="947.96" cy="148.19" r="1.62"/><circle class="cls-4" cx="972.44" cy="148.19" r="1.62"/><circle class="cls-4" cx="997.52" cy="80.19" r="1.62"/><circle class="cls-4" cx="1022.24" cy="80.19" r="1.62"/><circle class="cls-4" cx="1046.96" cy="80.19" r="1.62"/><circle class="cls-4" cx="1071.44" cy="80.19" r="1.62"/><circle class="cls-4" cx="997.52" cy="103.19" r="1.62"/><circle class="cls-4" cx="1022.24" cy="103.19" r="1.62"/><circle class="cls-4" cx="1046.96" cy="103.19" r="1.62"/><circle class="cls-4" cx="1071.44" cy="103.19" r="1.62"/><circle class="cls-4" cx="997.52" cy="125.19" r="1.62"/><circle class="cls-4" cx="1022.24" cy="125.19" r="1.62"/><circle class="cls-4" cx="1046.96" cy="125.19" r="1.62"/><circle class="cls-4" cx="1071.44" cy="125.19" r="1.62"/><circle class="cls-4" cx="997.52" cy="148.19" r="1.62"/><circle class="cls-4" cx="1022.24" cy="148.19" r="1.62"/><circle class="cls-4" cx="1046.96" cy="148.19" r="1.62"/><circle class="cls-4" cx="1071.44" cy="148.19" r="1.62"/><circle class="cls-4" cx="1096.52" cy="80.19" r="1.62"/><circle class="cls-4" cx="1121.24" cy="80.19" r="1.62"/><circle class="cls-4" cx="1145.96" cy="80.19" r="1.62"/><circle class="cls-4" cx="1170.44" cy="80.19" r="1.62"/><circle class="cls-4" cx="1096.52" cy="103.19" r="1.62"/><circle class="cls-4" cx="1121.24" cy="103.19" r="1.62"/><circle class="cls-4" cx="1145.96" cy="103.19" r="1.62"/><circle class="cls-4" cx="1170.44" cy="103.19" r="1.62"/><circle class="cls-4" cx="1096.52" cy="125.19" r="1.62"/><circle class="cls-4" cx="1121.24" cy="125.19" r="1.62"/><circle class="cls-4" cx="1145.96" cy="125.19" r="1.62"/><circle class="cls-4" cx="1170.44" cy="125.19" r="1.62"/><circle class="cls-4" cx="1096.52" cy="148.19" r="1.62"/><circle class="cls-4" cx="1121.24" cy="148.19" r="1.62"/><circle class="cls-4" cx="1145.96" cy="148.19" r="1.62"/><circle class="cls-4" cx="1170.44" cy="148.19" r="1.62"/><circle class="cls-4" cx="1195.52" cy="80.19" r="1.62"/><circle class="cls-4" cx="1220.24" cy="80.19" r="1.62"/><circle class="cls-4" cx="1244.96" cy="80.19" r="1.62"/><circle class="cls-4" cx="1269.44" cy="80.19" r="1.62"/><circle class="cls-4" cx="1195.52" cy="103.19" r="1.62"/><circle class="cls-4" cx="1220.24" cy="103.19" r="1.62"/><circle class="cls-4" cx="1244.96" cy="103.19" r="1.62"/><circle class="cls-4" cx="1269.44" cy="103.19" r="1.62"/><circle class="cls-4" cx="1195.52" cy="125.19" r="1.62"/><circle class="cls-4" cx="1220.24" cy="125.19" r="1.62"/><circle class="cls-4" cx="1244.96" cy="125.19" r="1.62"/><circle class="cls-4" cx="1269.44" cy="125.19" r="1.62"/><circle class="cls-4" cx="1195.52" cy="148.19" r="1.62"/><circle class="cls-4" cx="1220.24" cy="148.19" r="1.62"/><circle class="cls-4" cx="1244.96" cy="148.19" r="1.62"/><circle class="cls-4" cx="1269.44" cy="148.19" r="1.62"/><circle class="cls-4" cx="1294.52" cy="80.19" r="1.62"/><circle class="cls-4" cx="1319.24" cy="80.19" r="1.62"/><circle class="cls-4" cx="1343.96" cy="80.19" r="1.62"/><circle class="cls-4" cx="1294.52" cy="103.19" r="1.62"/><circle class="cls-4" cx="1319.24" cy="103.19" r="1.62"/><circle class="cls-4" cx="1343.96" cy="103.19" r="1.62"/><circle class="cls-4" cx="1294.52" cy="125.19" r="1.62"/><circle class="cls-4" cx="1319.24" cy="125.19" r="1.62"/><circle class="cls-4" cx="1343.96" cy="125.19" r="1.62"/><circle class="cls-4" cx="1096.52" cy="57.19" r="1.62"/><circle class="cls-4" cx="1121.24" cy="57.19" r="1.62"/><circle class="cls-4" cx="1145.96" cy="57.19" r="1.62"/><circle class="cls-4" cx="1170.44" cy="57.19" r="1.62"/><circle class="cls-4" cx="1195.52" cy="35.19" r="1.62"/><circle class="cls-4" cx="1220.24" cy="35.19" r="1.62"/><circle class="cls-4" cx="1244.96" cy="35.19" r="1.62"/><circle class="cls-4" cx="1269.44" cy="35.19" r="1.62"/><circle class="cls-4" cx="1195.52" cy="57.19" r="1.62"/><circle class="cls-4" cx="1220.24" cy="57.19" r="1.62"/><circle class="cls-4" cx="1244.96" cy="57.19" r="1.62"/><circle class="cls-4" cx="1269.44" cy="57.19" r="1.62"/><circle class="cls-4" cx="1319.24" cy="12.19" r="1.62"/><circle class="cls-4" cx="1343.96" cy="12.19" r="1.62"/><circle class="cls-4" cx="1294.52" cy="35.19" r="1.62"/><circle class="cls-4" cx="1319.24" cy="35.19" r="1.62"/><circle class="cls-4" cx="1343.96" cy="35.19" r="1.62"/><circle class="cls-4" cx="1294.52" cy="57.19" r="1.62"/><circle class="cls-4" cx="1319.24" cy="57.19" r="1.62"/><circle class="cls-4" cx="1343.96" cy="57.19" r="1.62"/><circle class="cls-4" cx="1294.52" cy="148.19" r="1.62"/><circle class="cls-4" cx="1319.24" cy="148.19" r="1.62"/><circle class="cls-4" cx="1343.96" cy="148.19" r="1.62"/><path class="cls-4" d="M822.73,829.75a1.62,1.62,0,0,0,3.13-.57v0Z" transform="translate(0 -726)"/><path class="cls-4" d="M946.34,806.15v0a1.62,1.62,0,1,0,3.24,0,1.69,1.69,0,0,0-.13-.63Z" transform="translate(0 -726)"/><path class="cls-4" d="M1072.58,782l-2.63.5a1.74,1.74,0,0,0-.13.64,1.62,1.62,0,1,0,3.24,0A1.59,1.59,0,0,0,1072.58,782Z" transform="translate(0 -726)"/><path class="cls-3" d="M77.9,781.69a1.61,1.61,0,0,0,1.54,2.11,1.6,1.6,0,0,0,1.6-1.46Z" transform="translate(0 -726)"/></svg>